<?xml version="1.0" encoding="UTF-8" standalone="no"?>
<svg width="103px" height="96px" viewBox="0 0 103 96" version="1.1" xmlns="http://www.w3.org/2000/svg" xmlns:xlink="http://www.w3.org/1999/xlink" xmlns:sketch="http://www.bohemiancoding.com/sketch/ns">
    <!-- Generator: Sketch 3.4.4 (17249) - http://www.bohemiancoding.com/sketch -->
    <title>ic_settings_overscan_white_36px</title>
    <desc>Created with Sketch.</desc>
    <defs>
        <path d="M51,0 L102,48 L0,48 L51,0 Z M51,96 L102,48 L0,48 L51,96 Z" id="path-1"></path>
    </defs>
    <g id="Redesign" stroke="none" stroke-width="1" fill="none" fill-rule="evenodd" sketch:type="MSPage">
        <g id="Desktop-Copy-11" sketch:type="MSArtboardGroup" transform="translate(-542.000000, -1311.000000)">
            <g id="Skills" sketch:type="MSLayerGroup" transform="translate(-11.000000, 1224.000000)">
                <g id="1-Responsive" transform="translate(492.031250, 62.000000)">
                    <g id="ic_settings_overscan_white_36px" transform="translate(61.074219, 25.000000)">
                        <g id="Group">
                            <g id="Triangle-1-Copy-5">
                                <use fill="#C93E65" fill-rule="evenodd" sketch:type="MSShapeGroup" xlink:href="#path-1"></use>
                                <use fill="none" xlink:href="#path-1"></use>
                            </g>
                            <path d="M50.8286229,35.1013363 L46.6609996,40.2026725 L54.9547773,40.2026725 L50.8286229,35.1013363 L50.8286229,35.1013363 Z M63.2485549,44.2837415 L63.2485549,52.4458796 L68.4321659,48.3852159 L63.2485549,44.2837415 L63.2485549,44.2837415 Z M38.367222,44.2837415 L33.183611,48.3852159 L38.367222,52.4458796 L38.367222,44.2837415 L38.367222,44.2837415 Z M54.9547773,56.5269486 L46.6609996,56.5269486 L50.8286229,61.6282848 L54.9547773,56.5269486 L54.9547773,56.5269486 Z M69.4688881,30 L32.1468888,30 C29.8661,30 28,31.8364811 28,34.081069 L28,62.6485521 C28,64.8931401 29.8661,66.7296211 32.1468888,66.7296211 L69.4688881,66.7296211 C71.7496769,66.7296211 73.6157769,64.8931401 73.6157769,62.6485521 L73.6157769,34.081069 C73.6157769,31.8364811 71.7496769,30 69.4688881,30 L69.4688881,30 Z M69.4688881,62.6689574 L32.1468888,62.6689574 L32.1468888,34.0606637 L69.4688881,34.0606637 L69.4688881,62.6689574 L69.4688881,62.6689574 Z" id="Shape-Copy" fill="#FFFFFF" sketch:type="MSShapeGroup"></path>
                        </g>
                    </g>
                </g>
            </g>
        </g>
    </g>
</svg>