<?xml version="1.0" encoding="UTF-8" standalone="no"?>
<svg width="11px" height="21px" viewBox="0 0 11 21" version="1.1" xmlns="http://www.w3.org/2000/svg" xmlns:xlink="http://www.w3.org/1999/xlink" xmlns:sketch="http://www.bohemiancoding.com/sketch/ns">
    <!-- Generator: Sketch 3.4.4 (17249) - http://www.bohemiancoding.com/sketch -->
    <title>facebook</title>
    <desc>Created with Sketch.</desc>
    <defs></defs>
    <g id="Redesign" stroke="none" stroke-width="1" fill="none" fill-rule="evenodd" sketch:type="MSPage">
        <g id="Desktop-Copy-11" sketch:type="MSArtboardGroup" transform="translate(-1865.000000, -46.000000)" fill="#FFFFFF">
            <g id="fa-github-+-fa-facebook-square-+-fa-twitter-square-copy-3" sketch:type="MSLayerGroup" transform="translate(1860.000000, 17.000000)">
                <g id="facebook" transform="translate(5.000000, 29.000000)" sketch:type="MSShapeGroup">
                    <path d="M11,0.151442308 L11,3.48317308 L9.00115741,3.48317308 C8.27121914,3.48317308 7.77893519,3.63461538 7.52430556,3.9375 C7.26967593,4.24038462 7.14236111,4.69471154 7.14236111,5.30048077 L7.14236111,7.68569712 L10.8726852,7.68569712 L10.3761574,11.421274 L7.14236111,11.421274 L7.14236111,21 L3.24652778,21 L3.24652778,11.421274 L0,11.421274 L0,7.68569712 L3.24652778,7.68569712 L3.24652778,4.93449519 C3.24652778,3.36959135 3.6878858,2.15594952 4.57060185,1.29356971 C5.4533179,0.431189904 6.62885802,0 8.09722222,0 C9.34490741,0 10.3125,0.0504807692 11,0.151442308 L11,0.151442308 Z" id="Shape"></path>
                </g>
            </g>
        </g>
    </g>
</svg>