<?xml version="1.0" encoding="UTF-8" standalone="no"?>
<svg width="20px" height="17px" viewBox="0 0 20 17" version="1.1" xmlns="http://www.w3.org/2000/svg" xmlns:xlink="http://www.w3.org/1999/xlink" xmlns:sketch="http://www.bohemiancoding.com/sketch/ns">
    <!-- Generator: Sketch 3.4.4 (17249) - http://www.bohemiancoding.com/sketch -->
    <title>github-alt</title>
    <desc>Created with Sketch.</desc>
    <defs></defs>
    <g id="Redesign" stroke="none" stroke-width="1" fill="none" fill-rule="evenodd" sketch:type="MSPage">
        <g id="Desktop-Copy-11" sketch:type="MSArtboardGroup" transform="translate(-1860.000000, -107.000000)" fill="#FFFFFF">
            <g id="fa-github-+-fa-facebook-square-+-fa-twitter-square-copy-3" sketch:type="MSLayerGroup" transform="translate(1860.000000, 17.000000)">
                <g id="github-alt" transform="translate(0.000000, 90.000000)" sketch:type="MSShapeGroup">
                    <path d="M7.69230769,11.5056818 C7.69230769,11.8252841 7.64222756,12.1528764 7.54206731,12.4884588 C7.44190705,12.8240412 7.26963141,13.1276634 7.02524038,13.3993253 C6.78084936,13.6709872 6.49038462,13.8068182 6.15384615,13.8068182 C5.81730769,13.8068182 5.52684295,13.6709872 5.28245192,13.3993253 C5.0380609,13.1276634 4.86578526,12.8240412 4.765625,12.4884588 C4.66546474,12.1528764 4.61538462,11.8252841 4.61538462,11.5056818 C4.61538462,11.1860795 4.66546474,10.8584872 4.765625,10.5229048 C4.86578526,10.1873224 5.0380609,9.88370028 5.28245192,9.61203835 C5.52684295,9.34037642 5.81730769,9.20454545 6.15384615,9.20454545 C6.49038462,9.20454545 6.78084936,9.34037642 7.02524038,9.61203835 C7.26963141,9.88370028 7.44190705,10.1873224 7.54206731,10.5229048 C7.64222756,10.8584872 7.69230769,11.1860795 7.69230769,11.5056818 L7.69230769,11.5056818 Z M15.3846154,11.5056818 C15.3846154,11.8252841 15.3345353,12.1528764 15.234375,12.4884588 C15.1342147,12.8240412 14.9619391,13.1276634 14.7175481,13.3993253 C14.4731571,13.6709872 14.1826923,13.8068182 13.8461538,13.8068182 C13.5096154,13.8068182 13.2191506,13.6709872 12.9747596,13.3993253 C12.7303686,13.1276634 12.5580929,12.8240412 12.4579327,12.4884588 C12.3577724,12.1528764 12.3076923,11.8252841 12.3076923,11.5056818 C12.3076923,11.1860795 12.3577724,10.8584872 12.4579327,10.5229048 C12.5580929,10.1873224 12.7303686,9.88370028 12.9747596,9.61203835 C13.2191506,9.34037642 13.5096154,9.20454545 13.8461538,9.20454545 C14.1826923,9.20454545 14.4731571,9.34037642 14.7175481,9.61203835 C14.9619391,9.88370028 15.1342147,10.1873224 15.234375,10.5229048 C15.3345353,10.8584872 15.3846154,11.1860795 15.3846154,11.5056818 L15.3846154,11.5056818 Z M17.3076923,11.5056818 C17.3076923,10.546875 17.03125,9.7318892 16.4783654,9.06072443 C15.9254808,8.38955966 15.1762821,8.05397727 14.2307692,8.05397727 C13.9022436,8.05397727 13.1209936,8.13787287 11.8870192,8.30566406 C11.318109,8.39355469 10.6891026,8.4375 10,8.4375 C9.31089744,8.4375 8.68189103,8.39355469 8.11298077,8.30566406 C6.89503205,8.13787287 6.11378205,8.05397727 5.76923077,8.05397727 C4.82371795,8.05397727 4.07451923,8.38955966 3.52163462,9.06072443 C2.96875,9.7318892 2.69230769,10.546875 2.69230769,11.5056818 C2.69230769,12.2088068 2.82051282,12.8220437 3.07692308,13.3453924 C3.33333333,13.8687411 3.65785256,14.280229 4.05048077,14.5798562 C4.44310897,14.8794833 4.93189103,15.119185 5.51682692,15.2989613 C6.10176282,15.4787376 6.66266026,15.5965909 7.19951923,15.6525213 C7.73637821,15.7084517 8.33333333,15.7364169 8.99038462,15.7364169 L11.0096154,15.7364169 C11.6666667,15.7364169 12.2636218,15.7084517 12.8004808,15.6525213 C13.3373397,15.5965909 13.8982372,15.4787376 14.4831731,15.2989613 C15.068109,15.119185 15.556891,14.8794833 15.9495192,14.5798562 C16.3421474,14.280229 16.6666667,13.8687411 16.9230769,13.3453924 C17.1794872,12.8220437 17.3076923,12.2088068 17.3076923,11.5056818 L17.3076923,11.5056818 Z M20,9.39630682 C20,11.0502486 19.755609,12.372603 19.2668269,13.36337 C18.9623397,13.9786044 18.5396635,14.5099432 17.9987981,14.9573864 C17.4579327,15.4048295 16.8930288,15.748402 16.3040865,15.9881037 C15.7151442,16.2278054 15.0340545,16.4175692 14.2608173,16.5573952 C13.4875801,16.6972212 12.8004808,16.7851119 12.1995192,16.8210671 C11.5985577,16.8570224 10.9294872,16.875 10.1923077,16.875 C9.56730769,16.875 8.99839744,16.8630149 8.48557692,16.8390447 C7.97275641,16.8150746 7.3818109,16.7651367 6.71274038,16.6892312 C6.04366987,16.6133256 5.43269231,16.4934748 4.87980769,16.3296786 C4.32692308,16.1658825 3.77804487,15.9601385 3.23317308,15.7124467 C2.68830128,15.464755 2.20352564,15.1411577 1.77884615,14.7416548 C1.35416667,14.342152 1.00961538,13.8827237 0.745192308,13.36337 C0.248397436,12.380593 0,11.0582386 0,9.39630682 C0,7.50266335 0.544871795,5.9206321 1.63461538,4.65021307 C1.41826923,3.99502841 1.31009615,3.31587358 1.31009615,2.61274858 C1.31009615,1.68590199 1.51442308,0.814985795 1.92307692,0 C2.78846154,0 3.54967949,0.157803622 4.20673077,0.473410866 C4.86378205,0.789018111 5.62099359,1.28240412 6.47836538,1.95356889 C7.65625,1.6739169 8.89423077,1.53409091 10.1923077,1.53409091 C11.3782051,1.53409091 12.5,1.66193182 13.5576923,1.91761364 C14.3990385,1.26242898 15.1482372,0.77903054 15.8052885,0.467418324 C16.4623397,0.155806108 17.2195513,0 18.0769231,0 C18.4855769,0.814985795 18.6899038,1.68590199 18.6899038,2.61274858 C18.6899038,3.30788352 18.5817308,3.9790483 18.3653846,4.6262429 C19.4551282,5.90465199 20,7.4946733 20,9.39630682 L20,9.39630682 Z" id="Shape"></path>
                </g>
            </g>
        </g>
    </g>
</svg>