<?xml version="1.0" encoding="UTF-8" standalone="no"?>
<svg width="19px" height="19px" viewBox="0 0 19 19" version="1.1" xmlns="http://www.w3.org/2000/svg" xmlns:xlink="http://www.w3.org/1999/xlink" xmlns:sketch="http://www.bohemiancoding.com/sketch/ns">
    <!-- Generator: Sketch 3.4.4 (17249) - http://www.bohemiancoding.com/sketch -->
    <title>Oval 3</title>
    <desc>Created with Sketch.</desc>
    <defs></defs>
    <g id="Redesign" stroke="none" stroke-width="1" fill="none" fill-rule="evenodd" sketch:type="MSPage">
        <g id="Desktop-Copy-11" sketch:type="MSArtboardGroup" transform="translate(-1861.000000, -17.000000)" fill="#FFFFFF">
            <g id="fa-github-+-fa-facebook-square-+-fa-twitter-square-copy-3" sketch:type="MSLayerGroup" transform="translate(1860.000000, 17.000000)">
                <g id="instagram" transform="translate(1.000000, 0.000000)" sketch:type="MSShapeGroup">
                    <path d="M16.1726713,15.4389214 L16.1726713,7.7313551 L14.5696533,7.7313551 C14.727976,8.23091958 14.8071374,8.75030805 14.8071374,9.28952051 C14.8071374,10.2886495 14.553821,11.2104649 14.0471881,12.0549668 C13.5405552,12.8994686 12.8518512,13.567537 11.9810759,14.0591719 C11.1103007,14.5508068 10.160364,14.7966242 9.13126598,14.7966242 C7.57178666,14.7966242 6.23791729,14.2593942 5.12965787,13.184934 C4.02139846,12.1104739 3.46726875,10.8120027 3.46726875,9.28952051 C3.46726875,8.75030805 3.54643013,8.23091958 3.70475291,7.7313551 L2.03048957,7.7313551 L2.03048957,15.4389214 C2.03048957,15.6450909 2.09975579,15.8175596 2.23828822,15.9563275 C2.37682064,16.0950954 2.54899666,16.1644794 2.75481626,16.1644794 L15.4483447,16.1644794 C15.6462481,16.1644794 15.8164451,16.0950954 15.9589356,15.9563275 C16.1014261,15.8175596 16.1726713,15.6450909 16.1726713,15.4389214 L16.1726713,15.4389214 Z M12.8003963,9.09921023 C12.8003963,8.11594046 12.442191,7.27738579 11.7257804,6.58354623 C11.0093699,5.88970667 10.1445317,5.54278689 9.13126598,5.54278689 C8.12591637,5.54278689 7.26503628,5.88970667 6.54862573,6.58354623 C5.83221518,7.27738579 5.47400991,8.11594046 5.47400991,9.09921023 C5.47400991,10.08248 5.83221518,10.9210347 6.54862573,11.6148742 C7.26503628,12.3087138 8.12591637,12.6556336 9.13126598,12.6556336 C10.1445317,12.6556336 11.0093699,12.3087138 11.7257804,11.6148742 C12.442191,10.9210347 12.8003963,10.08248 12.8003963,9.09921023 L12.8003963,9.09921023 Z M16.1726713,4.81722895 L16.1726713,2.85465419 C16.1726713,2.63262553 16.09351,2.44033285 15.9351872,2.27777616 C15.7768644,2.11521946 15.582919,2.03394111 15.353351,2.03394111 L13.2872388,2.03394111 C13.0576708,2.03394111 12.8637254,2.11521946 12.7054026,2.27777616 C12.5470798,2.44033285 12.4679184,2.63262553 12.4679184,2.85465419 L12.4679184,4.81722895 C12.4679184,5.0471872 12.5470798,5.24146228 12.7054026,5.40005418 C12.8637254,5.55864608 13.0576708,5.63794203 13.2872388,5.63794203 L15.353351,5.63794203 C15.582919,5.63794203 15.7768644,5.55864608 15.9351872,5.40005418 C16.09351,5.24146228 16.1726713,5.0471872 16.1726713,4.81722895 L16.1726713,4.81722895 Z M18.2387835,2.34319531 L18.2387835,15.9265915 C18.2387835,16.5688887 18.0092155,17.1199955 17.5500795,17.5799121 C17.0909434,18.0398286 16.5407718,18.2697868 15.8995646,18.2697868 L2.33921898,18.2697868 C1.69801175,18.2697868 1.14784011,18.0398286 0.688704066,17.5799121 C0.229568022,17.1199955 -2.66453526e-14,16.5688887 -2.66453526e-14,15.9265915 L-2.66453526e-14,2.34319531 C-2.66453526e-14,1.70089812 0.229568022,1.14979127 0.688704066,0.689874763 C1.14784011,0.229958254 1.69801175,2.16715534e-13 2.33921898,2.16715534e-13 L15.8995646,2.16715534e-13 C16.5407718,2.16715534e-13 17.0909434,0.229958254 17.5500795,0.689874763 C18.0092155,1.14979127 18.2387835,1.70089812 18.2387835,2.34319531 L18.2387835,2.34319531 Z" id="Oval-3"></path>
                </g>
            </g>
        </g>
    </g>
</svg>