<?xml version="1.0" encoding="UTF-8" standalone="no"?>
<svg width="46px" height="35px" viewBox="0 0 46 35" version="1.1" xmlns="http://www.w3.org/2000/svg" xmlns:xlink="http://www.w3.org/1999/xlink" xmlns:sketch="http://www.bohemiancoding.com/sketch/ns">
    <!-- Generator: Sketch 3.4.4 (17249) - http://www.bohemiancoding.com/sketch -->
    <title>Group Copy 17 + Group Copy 18 Copy Copy Copy Copy Copy Copy</title>
    <desc>Created with Sketch.</desc>
    <defs></defs>
    <g id="Redesign" stroke="none" stroke-width="1" fill="none" fill-rule="evenodd" sketch:type="MSPage">
        <g id="Artboard-2" sketch:type="MSArtboardGroup" transform="translate(-934.000000, -1464.000000)">
            <g id="Group-Copy-17-+-Group-Copy-18-Copy-Copy-Copy-Copy-Copy-Copy" sketch:type="MSLayerGroup" transform="translate(932.000000, 1461.631579)">
                <g id="Group-Copy-17" sketch:type="MSShapeGroup">
                    <g id="Polygon-2-+-Polygon-2-Copy-2-+-Polygon-2-Copy" transform="translate(23.076923, 10.121457) rotate(-330.000000) translate(-23.076923, -10.121457) translate(13.765182, 3.846154)">
                        <polygon id="Polygon-2" fill="#E1F647" transform="translate(13.582996, 4.959514) scale(1, -1) translate(-13.582996, -4.959514) " points="13.582996 1.1506765e-14 17.8780612 7.43927126 9.28793069 7.43927126 "></polygon>
                        <polygon id="Polygon-2-Copy-2" fill="#F6C047" transform="translate(4.959514, 4.959514) scale(1, -1) translate(-4.959514, -4.959514) " points="4.95951417 -1.00684193e-14 9.25457943 7.43927126 0.664448908 7.43927126 "></polygon>
                        <polygon id="Polygon-2-Copy" fill="#F6E047" points="9.27125506 2.44939271 13.5663203 9.88866397 4.9761898 9.88866397 "></polygon>
                    </g>
                    <g id="Polygon-2-+-Polygon-2-Copy-2-+-Polygon-2-Copy-Copy" transform="translate(11.991330, 10.090443) rotate(-30.000000) translate(-11.991330, -10.090443) translate(2.679589, 3.815139)">
                        <polygon id="Polygon-2" fill="#F8A54A" transform="translate(13.582996, 4.959514) scale(1, -1) translate(-13.582996, -4.959514) " points="13.582996 -4.22873612e-15 17.8780612 7.43927126 9.28793069 7.43927126 "></polygon>
                        <polygon id="Polygon-2-Copy-2" fill="#EE6D51" transform="translate(4.959514, 4.959514) scale(1, -1) translate(-4.959514, -4.959514) " points="4.95951417 2.30135299e-14 9.25457943 7.43927126 0.664448908 7.43927126 "></polygon>
                        <polygon id="Polygon-2-Copy" fill="#F87E4A" points="9.27125506 2.44939271 13.5663203 9.88866397 4.9761898 9.88866397 "></polygon>
                    </g>
                    <g id="Polygon-2-+-Polygon-2-Copy-2-+-Polygon-2-Copy-Copy-Copy" transform="translate(6.396761, 19.676113) rotate(-90.000000) translate(-6.396761, -19.676113) translate(-2.914980, 13.400810)">
                        <polygon id="Polygon-2" fill="#DC4734" transform="translate(13.582996, 4.959514) scale(1, -1) translate(-13.582996, -4.959514) " points="13.582996 3.05648444e-16 17.8780612 7.43927126 9.28793069 7.43927126 "></polygon>
                        <polygon id="Polygon-2-Copy-2" fill="#E03A7B" transform="translate(4.959514, 4.959514) scale(1, -1) translate(-4.959514, -4.959514) " points="4.95951417 6.76022441e-16 9.25457943 7.43927126 0.664448908 7.43927126 "></polygon>
                        <polygon id="Polygon-2-Copy" fill="#D32145" points="9.27125506 2.44939271 13.5663203 9.88866397 4.9761898 9.88866397 "></polygon>
                    </g>
                    <g id="Polygon-2-+-Polygon-2-Copy-2-+-Polygon-2-Copy-Copy-Copy-Copy" transform="translate(11.904375, 29.322936) rotate(-150.000000) translate(-11.904375, -29.322936) translate(2.592635, 23.047633)">
                        <polygon id="Polygon-2" fill="#D11E89" transform="translate(13.582996, 4.959514) scale(1, -1) translate(-13.582996, -4.959514) " points="13.582996 1.1506765e-14 17.8780612 7.43927126 9.28793069 7.43927126 "></polygon>
                        <polygon id="Polygon-2-Copy-2" fill="#773AE4" transform="translate(4.959514, 4.959514) scale(1, -1) translate(-4.959514, -4.959514) " points="4.95951417 -1.72601474e-14 9.25457943 7.43927126 0.664448908 7.43927126 "></polygon>
                        <polygon id="Polygon-2-Copy" fill="#D321C8" points="9.27125506 2.44939271 13.5663203 9.88866397 4.9761898 9.88866397 "></polygon>
                    </g>
                    <g id="Polygon-2-+-Polygon-2-Copy-2-+-Polygon-2-Copy-Copy-Copy-Copy-Copy" transform="translate(22.992697, 29.355691) rotate(-210.000000) translate(-22.992697, -29.355691) translate(13.680956, 23.080387)">
                        <polygon id="Polygon-2" fill="#218DD3" transform="translate(13.582996, 4.959514) scale(1, -1) translate(-13.582996, -4.959514) " points="13.582996 3.45202949e-14 17.8780612 7.43927126 9.28793069 7.43927126 "></polygon>
                        <polygon id="Polygon-2-Copy-2" fill="#1FD9C9" transform="translate(4.959514, 4.959514) scale(1, -1) translate(-4.959514, -4.959514) " points="4.95951417 6.90405897e-14 9.25457943 7.43927126 0.664448908 7.43927126 "></polygon>
                        <polygon id="Polygon-2-Copy" fill="#21B8D3" points="9.27125506 2.44939271 13.5663203 9.88866397 4.9761898 9.88866397 "></polygon>
                    </g>
                    <path d="M24.958837,24.0613748 L32.3981083,28.3564401 L32.3981083,19.7663095 L24.958837,24.0613748 L24.958837,24.0613748 Z" id="Polygon-2-Copy-3" fill="#21D484"></path>
                    <path d="M24.9385712,24.0904036 L32.3778424,19.7953383 L24.9385712,15.500273 L24.9385712,24.0904036 L24.9385712,24.0904036 Z" id="Polygon-2-Copy-4" fill="#7ED421"></path>
                    <path d="M17.5249775,19.7813694 L24.9642487,24.0764346 L24.9642487,15.4863041 L17.5249775,19.7813694 L17.5249775,19.7813694 Z" id="Polygon-2-Copy-5" fill="#BED535"></path>
                </g>
                <g id="Group-Copy-18" transform="translate(32.489879, 19.736842) scale(-1, 1) translate(-32.489879, -19.736842) translate(14.979757, 0.000000)" sketch:type="MSShapeGroup">
                    <g id="Polygon-2-+-Polygon-2-Copy-2-+-Polygon-2-Copy" transform="translate(23.076923, 10.121457) rotate(-330.000000) translate(-23.076923, -10.121457) translate(13.765182, 3.846154)">
                        <polygon id="Polygon-2" fill="#E1F647" transform="translate(13.582996, 4.959514) scale(1, -1) translate(-13.582996, -4.959514) " points="13.582996 1.1506765e-14 17.8780612 7.43927126 9.28793069 7.43927126 "></polygon>
                        <polygon id="Polygon-2-Copy-2" fill="#F6C047" transform="translate(4.959514, 4.959514) scale(1, -1) translate(-4.959514, -4.959514) " points="4.95951417 -1.00684193e-14 9.25457943 7.43927126 0.664448908 7.43927126 "></polygon>
                        <polygon id="Polygon-2-Copy" fill="#F6E047" points="9.27125506 2.44939271 13.5663203 9.88866397 4.9761898 9.88866397 "></polygon>
                    </g>
                    <g id="Polygon-2-+-Polygon-2-Copy-2-+-Polygon-2-Copy-Copy" transform="translate(11.991330, 10.090443) rotate(-30.000000) translate(-11.991330, -10.090443) translate(2.679589, 3.815139)">
                        <polygon id="Polygon-2" fill="#F8A54A" transform="translate(13.582996, 4.959514) scale(1, -1) translate(-13.582996, -4.959514) " points="13.582996 -4.22873612e-15 17.8780612 7.43927126 9.28793069 7.43927126 "></polygon>
                        <polygon id="Polygon-2-Copy-2" fill="#EE6D51" transform="translate(4.959514, 4.959514) scale(1, -1) translate(-4.959514, -4.959514) " points="4.95951417 2.30135299e-14 9.25457943 7.43927126 0.664448908 7.43927126 "></polygon>
                        <polygon id="Polygon-2-Copy" fill="#F87E4A" points="9.27125506 2.44939271 13.5663203 9.88866397 4.9761898 9.88866397 "></polygon>
                    </g>
                    <g id="Polygon-2-+-Polygon-2-Copy-2-+-Polygon-2-Copy-Copy-Copy" transform="translate(6.396761, 19.676113) rotate(-90.000000) translate(-6.396761, -19.676113) translate(-2.914980, 13.400810)">
                        <polygon id="Polygon-2" fill="#DC4734" transform="translate(13.582996, 4.959514) scale(1, -1) translate(-13.582996, -4.959514) " points="13.582996 3.05648444e-16 17.8780612 7.43927126 9.28793069 7.43927126 "></polygon>
                        <polygon id="Polygon-2-Copy-2" fill="#E03A7B" transform="translate(4.959514, 4.959514) scale(1, -1) translate(-4.959514, -4.959514) " points="4.95951417 6.76022441e-16 9.25457943 7.43927126 0.664448908 7.43927126 "></polygon>
                        <polygon id="Polygon-2-Copy" fill="#D32145" points="9.27125506 2.44939271 13.5663203 9.88866397 4.9761898 9.88866397 "></polygon>
                    </g>
                    <g id="Polygon-2-+-Polygon-2-Copy-2-+-Polygon-2-Copy-Copy-Copy-Copy" transform="translate(11.904375, 29.322936) rotate(-150.000000) translate(-11.904375, -29.322936) translate(2.592635, 23.047633)">
                        <polygon id="Polygon-2" fill="#D11E89" transform="translate(13.582996, 4.959514) scale(1, -1) translate(-13.582996, -4.959514) " points="13.582996 1.1506765e-14 17.8780612 7.43927126 9.28793069 7.43927126 "></polygon>
                        <polygon id="Polygon-2-Copy-2" fill="#773AE4" transform="translate(4.959514, 4.959514) scale(1, -1) translate(-4.959514, -4.959514) " points="4.95951417 -1.72601474e-14 9.25457943 7.43927126 0.664448908 7.43927126 "></polygon>
                        <polygon id="Polygon-2-Copy" fill="#D321C8" points="9.27125506 2.44939271 13.5663203 9.88866397 4.9761898 9.88866397 "></polygon>
                    </g>
                    <g id="Polygon-2-+-Polygon-2-Copy-2-+-Polygon-2-Copy-Copy-Copy-Copy-Copy" transform="translate(22.992697, 29.355691) rotate(-210.000000) translate(-22.992697, -29.355691) translate(13.680956, 23.080387)">
                        <polygon id="Polygon-2" fill="#218DD3" transform="translate(13.582996, 4.959514) scale(1, -1) translate(-13.582996, -4.959514) " points="13.582996 3.45202949e-14 17.8780612 7.43927126 9.28793069 7.43927126 "></polygon>
                        <polygon id="Polygon-2-Copy-2" fill="#1FD9C9" transform="translate(4.959514, 4.959514) scale(1, -1) translate(-4.959514, -4.959514) " points="4.95951417 6.90405897e-14 9.25457943 7.43927126 0.664448908 7.43927126 "></polygon>
                        <polygon id="Polygon-2-Copy" fill="#21B8D3" points="9.27125506 2.44939271 13.5663203 9.88866397 4.9761898 9.88866397 "></polygon>
                    </g>
                    <path d="M24.958837,24.0613748 L32.3981083,28.3564401 L32.3981083,19.7663095 L24.958837,24.0613748 L24.958837,24.0613748 Z" id="Polygon-2-Copy-3" fill="#21D484"></path>
                    <path d="M24.9385712,24.0904036 L32.3778424,19.7953383 L24.9385712,15.500273 L24.9385712,24.0904036 L24.9385712,24.0904036 Z" id="Polygon-2-Copy-4" fill="#7ED421"></path>
                    <path d="M17.5249775,19.7813694 L24.9642487,24.0764346 L24.9642487,15.4863041 L17.5249775,19.7813694 L17.5249775,19.7813694 Z" id="Polygon-2-Copy-5" fill="#7ED421"></path>
                </g>
            </g>
        </g>
    </g>
</svg>