<?xml version="1.0" encoding="UTF-8" standalone="no"?>
<svg width="103px" height="96px" viewBox="0 0 103 96" version="1.1" xmlns="http://www.w3.org/2000/svg" xmlns:xlink="http://www.w3.org/1999/xlink" xmlns:sketch="http://www.bohemiancoding.com/sketch/ns">
    <!-- Generator: Sketch 3.4.4 (17249) - http://www.bohemiancoding.com/sketch -->
    <title>code-braces</title>
    <desc>Created with Sketch.</desc>
    <defs>
        <path d="M51.9150391,0 L102.915039,48 L0.915039062,48 L51.9150391,0 Z M51.9150391,96 L102.915039,48 L0.915039062,48 L51.9150391,96 Z" id="path-1"></path>
    </defs>
    <g id="Redesign" stroke="none" stroke-width="1" fill="none" fill-rule="evenodd" sketch:type="MSPage">
        <g id="Desktop-Copy-11" sketch:type="MSArtboardGroup" transform="translate(-1277.000000, -1311.000000)">
            <g id="Skills" sketch:type="MSLayerGroup" transform="translate(-11.000000, 1224.000000)">
                <g id="4--Something-else" transform="translate(1227.749023, 63.000000)">
                    <g id="code-braces" transform="translate(60.084961, 24.000000)">
                        <g id="Triangle-1-Copy-2">
                            <use fill="#D76CD1" fill-rule="evenodd" sketch:type="MSShapeGroup" xlink:href="#path-1"></use>
                            <use fill="none" xlink:href="#path-1"></use>
                        </g>
                        <path d="M42.4039171,27 C39.8854962,27 37.8439128,29.0395917 37.8439128,31.5555556 L37.8439128,40.6666667 C37.8439128,43.1826305 35.8023293,45.2222222 33.2839084,45.2222222 L31.0039062,45.2222222 L31.0039062,49.7777778 L33.2839084,49.7777778 C35.8023293,49.7777778 37.8439128,51.8173695 37.8439128,54.3333333 L37.8439128,63.4444444 C37.8439128,65.9604083 39.8854962,68 42.4039171,68 L46.9639214,68 L46.9639214,63.4444444 L42.4039171,63.4444444 L42.4039171,52.0555556 C42.4039171,49.5395917 40.3623336,47.5 37.8439128,47.5 C40.3623336,47.5 42.4039171,45.4604083 42.4039171,42.9444444 L42.4039171,31.5555556 L46.9639214,31.5555556 L46.9639214,27 L42.4039171,27 Z M60.6439345,27 C63.1623553,27 65.2039388,29.0395917 65.2039388,31.5555556 L65.2039388,40.6666667 C65.2039388,43.1826305 67.2455223,45.2222222 69.7639431,45.2222222 L72.0439453,45.2222222 L72.0439453,49.7777778 L69.7639431,49.7777778 C67.2455223,49.7777778 65.2039388,51.8173695 65.2039388,54.3333333 L65.2039388,63.4444444 C65.2039388,65.9604083 63.1623553,68 60.6439345,68 L56.0839301,68 L56.0839301,63.4444444 L60.6439345,63.4444444 L60.6439345,52.0555556 C60.6439345,49.5395917 62.6855179,47.5 65.2039388,47.5 C62.6855179,47.5 60.6439345,45.4604083 60.6439345,42.9444444 L60.6439345,31.5555556 L56.0839301,31.5555556 L56.0839301,27 L60.6439345,27 L60.6439345,27 Z" id="Shape-Copy-4" fill="#FFFFFF" sketch:type="MSShapeGroup"></path>
                    </g>
                </g>
            </g>
        </g>
    </g>
</svg>