<?xml version="1.0" encoding="UTF-8" standalone="no"?>
<svg width="20px" height="16px" viewBox="0 0 20 16" version="1.1" xmlns="http://www.w3.org/2000/svg" xmlns:xlink="http://www.w3.org/1999/xlink" xmlns:sketch="http://www.bohemiancoding.com/sketch/ns">
    <!-- Generator: Sketch 3.4.4 (17249) - http://www.bohemiancoding.com/sketch -->
    <title>fa-twitter</title>
    <desc>Created with Sketch.</desc>
    <defs></defs>
    <g id="Redesign" stroke="none" stroke-width="1" fill="none" fill-rule="evenodd" sketch:type="MSPage">
        <g id="Desktop-Copy-11" sketch:type="MSArtboardGroup" transform="translate(-1860.000000, -78.000000)" fill="#FFFFFF">
            <g id="fa-github-+-fa-facebook-square-+-fa-twitter-square-copy-3" sketch:type="MSLayerGroup" transform="translate(1860.000000, 17.000000)">
                <g id="fa-twitter" transform="translate(0.042424, 61.000000)" sketch:type="MSShapeGroup">
                    <path d="M6.16668648,16 C7.59711884,16 8.93696711,15.7763634 10.211117,15.3280919 C11.4623721,14.8568576 12.5344497,14.2518408 13.4283455,13.4900786 C14.2993465,12.7283165 15.0817541,11.8547361 15.7297788,10.8683389 C16.3549086,9.85997754 16.8466509,8.82865344 17.1592158,7.75340072 C17.4727761,6.67814801 17.6290585,5.60189692 17.6290585,4.50368152 L17.6290585,3.98851866 C18.4104708,3.4064645 19.0813903,2.71159366 19.6398264,1.90490453 C18.8574187,2.21839511 18.0979059,2.4420317 17.3154982,2.50992138 C18.1874946,1.99376014 18.7907249,1.25496069 19.0813903,0.29152627 C18.2989827,0.761762137 17.4498812,1.0982154 16.534086,1.276925 C15.7297788,0.425308873 14.7462944,-8.8817842e-16 13.584628,-8.8817842e-16 C12.4896554,-8.8817842e-16 11.5290658,0.380381879 10.7466582,1.1651067 C9.96524591,1.97179583 9.56309234,2.91326594 9.56309234,4.03344565 C9.56309234,4.32497192 9.60788667,4.6384625 9.67458046,4.95195308 C8.02117186,4.88506177 6.47925138,4.45875452 5.02691957,3.71995507 C3.59748264,2.95819294 2.36812706,1.97179583 1.36274315,0.739797829 C1.00538391,1.36677898 0.804307131,2.03868713 0.804307131,2.77848496 C0.804307131,3.45039311 0.983484463,4.10033695 1.29604936,4.7053538 C1.63150914,5.28840634 2.05556216,5.75864221 2.61399818,6.14002246 C1.9659735,6.11705978 1.36274315,5.93835018 0.78240768,5.6248596 L0.78240768,5.6697866 C0.78240768,6.65518532 1.09497258,7.50680145 1.69820293,8.24659928 C2.32333273,8.9863971 3.08284553,9.43367029 4.02153566,9.63534257 C3.66417642,9.72519656 3.30681719,9.77012355 2.94945796,9.77012355 C2.72548629,9.77012355 2.47961518,9.74815924 2.18994516,9.70323225 C2.45771573,10.5099214 2.92656308,11.1818295 3.61938209,11.6979908 C4.31220111,12.2351179 5.09460878,12.5036815 5.9656097,12.5036815 C4.49137844,13.6697866 2.83796984,14.2298765 0.960589581,14.2298765 C0.603230349,14.2298765 0.290665448,14.2298765 -1.77635684e-15,14.1849495 C1.85448538,15.3949832 3.93194699,16 6.16668648,16" id="Oval-119"></path>
                </g>
            </g>
        </g>
    </g>
</svg>