<?xml version="1.0" encoding="UTF-8" standalone="no"?>
<svg width="103px" height="96px" viewBox="0 0 103 96" version="1.1" xmlns="http://www.w3.org/2000/svg" xmlns:xlink="http://www.w3.org/1999/xlink" xmlns:sketch="http://www.bohemiancoding.com/sketch/ns">
    <!-- Generator: Sketch 3.4.4 (17249) - http://www.bohemiancoding.com/sketch -->
    <title>ic_people_outline_white_36px</title>
    <desc>Created with Sketch.</desc>
    <defs>
        <path d="M51.3355035,0.5 L102.335503,48.5 L0.335503472,48.5 L51.3355035,0.5 Z M51.3355035,96.5 L102.335503,48.5 L0.335503472,48.5 L51.3355035,96.5 Z" id="path-1"></path>
    </defs>
    <g id="Redesign" stroke="none" stroke-width="1" fill="none" fill-rule="evenodd" sketch:type="MSPage">
        <g id="Desktop-Copy-11" sketch:type="MSArtboardGroup" transform="translate(-787.000000, -1311.000000)">
            <g id="Skills" sketch:type="MSLayerGroup" transform="translate(-11.000000, 1224.000000)">
                <g id="2--UX" transform="translate(737.270508, 63.000000)">
                    <g id="ic_people_outline_white_36px" transform="translate(60.664497, 23.500000)">
                        <g id="Group">
                            <path d="M22,18 L81.0576172,18 L81.0576172,77 L22,77 L22,18 Z" id="Shape" sketch:type="MSShapeGroup"></path>
                            <g id="Triangle-1-Copy-4">
                                <use fill="#9CD75C" fill-rule="evenodd" sketch:type="MSShapeGroup" xlink:href="#path-1"></use>
                                <use fill="none" xlink:href="#path-1"></use>
                            </g>
                            <path d="M61.4089835,49.6934524 C58.7742702,49.6934524 54.6685086,50.4392262 51.5288086,51.8869048 C48.3891086,50.4172917 44.283347,49.6934524 41.6486337,49.6934524 C36.8841938,49.6934524 27.3772699,52.062381 27.3772699,56.8221726 L27.3772699,62.8541667 L75.6803473,62.8541667 L75.6803473,56.8221726 C75.6803473,52.062381 66.1734234,49.6934524 61.4089835,49.6934524 L61.4089835,49.6934524 Z M52.6266058,59.5639881 L30.6706616,59.5639881 L30.6706616,56.8221726 C30.6706616,55.6377083 36.2913833,52.983631 41.6486337,52.983631 C47.0058841,52.983631 52.6266058,55.6377083 52.6266058,56.8221726 L52.6266058,59.5639881 L52.6266058,59.5639881 Z M72.3869556,59.5639881 L55.9199974,59.5639881 L55.9199974,56.8221726 C55.9199974,55.8131845 55.4808786,54.9358036 54.7782883,54.1461607 C56.7104114,53.488125 59.0816534,52.983631 61.4089835,52.983631 C66.7662339,52.983631 72.3869556,55.6377083 72.3869556,56.8221726 L72.3869556,59.5639881 L72.3869556,59.5639881 Z M41.6486337,47.5 C45.8861309,47.5 49.3332142,44.0562798 49.3332142,39.8229167 C49.3332142,35.5895536 45.8861309,32.1458333 41.6486337,32.1458333 C37.4111364,32.1458333 33.9640532,35.5895536 33.9640532,39.8229167 C33.9640532,44.0562798 37.4111364,47.5 41.6486337,47.5 L41.6486337,47.5 Z M41.6486337,35.4360119 C44.0637876,35.4360119 46.0398225,37.410119 46.0398225,39.8229167 C46.0398225,42.2357143 44.0637876,44.2098214 41.6486337,44.2098214 C39.2334798,44.2098214 37.2574448,42.2357143 37.2574448,39.8229167 C37.2574448,37.410119 39.2334798,35.4360119 41.6486337,35.4360119 L41.6486337,35.4360119 Z M61.4089835,47.5 C65.6464807,47.5 69.093564,44.0562798 69.093564,39.8229167 C69.093564,35.5895536 65.6464807,32.1458333 61.4089835,32.1458333 C57.1714863,32.1458333 53.724403,35.5895536 53.724403,39.8229167 C53.724403,44.0562798 57.1714863,47.5 61.4089835,47.5 L61.4089835,47.5 Z M61.4089835,35.4360119 C63.8241374,35.4360119 65.8001724,37.410119 65.8001724,39.8229167 C65.8001724,42.2357143 63.8241374,44.2098214 61.4089835,44.2098214 C58.9938296,44.2098214 57.0177947,42.2357143 57.0177947,39.8229167 C57.0177947,37.410119 58.9938296,35.4360119 61.4089835,35.4360119 L61.4089835,35.4360119 Z" id="Shape-Copy-2" fill="#FFFFFF" sketch:type="MSShapeGroup"></path>
                        </g>
                    </g>
                </g>
            </g>
        </g>
    </g>
</svg>