<?xml version="1.0" encoding="UTF-8" standalone="no"?>
<!-- Created with Inkscape (http://www.inkscape.org/) -->

<svg
   xmlns:dc="http://purl.org/dc/elements/1.1/"
   xmlns:cc="http://creativecommons.org/ns#"
   xmlns:rdf="http://www.w3.org/1999/02/22-rdf-syntax-ns#"
   xmlns:svg="http://www.w3.org/2000/svg"
   xmlns="http://www.w3.org/2000/svg"
   version="1.1"
   width="280"
   height="280"
   id="svg3083">
  <metadata
     id="metadata3089">
    <rdf:RDF>
      <cc:Work
         rdf:about="">
        <dc:format>image/svg+xml</dc:format>
        <dc:type
           rdf:resource="http://purl.org/dc/dcmitype/StillImage" />
        <dc:title></dc:title>
      </cc:Work>
    </rdf:RDF>
  </metadata>
  <defs
     id="defs3087" />
  <path
     d="m 223.1071,184.18326 a 115.46148,95.211311 0 1 1 -230.9229569,0 115.46148,95.211311 0 1 1 230.9229569,0 z"
     transform="matrix(1.2125256,0,0,1.4704135,9.4769266,-130.82555)"
     id="path4632"
     style="fill:#116dbf;fill-opacity:0.94117647;stroke:none" />
  <g
     transform="translate(-23.876045,-3.7810346)"
     id="g4088">
    <path
       d="m 139.33641,277.28377 c -26.68524,-5.00768 -50.889088,-17.83942 -70.626658,-37.44291 -25.24143,-25.06996 -38.16024,-54.43454 -39.5951,-90 C 27.540952,110.83404 41.201572,75.453125 68.297692,48.357 95.393822,21.260875 130.77475,7.6002568 169.78157,9.1739548 c 35.56546,1.4348592 64.93004,14.3536762 90,39.5951012 20.12115,20.258772 32.78765,44.561306 37.56386,72.071804 2.51692,14.49718 1.55759,41.91284 -1.95244,55.7966 -10.5497,41.72889 -40.31723,76.25883 -79.84803,92.62265 -16.52604,6.84097 -26.78037,8.76797 -48.76339,9.16365 -14.33717,0.25806 -21.60356,-0.0438 -27.44516,-1.13999 z m 50.44516,-4.95276 c 46.66611,-10.22696 83.48437,-42.99625 98.37488,-87.55641 4.8135,-14.40448 6.1271,-23.22189 6.09822,-40.93374 -0.0196,-12.03746 -0.51173,-18.73619 -1.81955,-24.76818 -10.41573,-48.039888 -43.13883,-84.687576 -88.97133,-99.641919 -25.09313,-8.187451 -52.91574,-8.169705 -78.93681,0.05035 -40.089368,12.664223 -72.440948,45.01581 -85.105178,85.105159 -8.22005,26.02107 -8.2378,53.84368 -0.0504,78.93681 9.22986,28.28794 27.76368,53.04635 51.60429,68.93562 14.615788,9.74111 34.670828,17.77867 50.805828,20.36171 4.125,0.66037 8.175,1.36181 9,1.55876 3.88256,0.92686 32.21415,-0.56103 39,-2.04816 z m -57,-67.96027 0,-2.47013 12.62639,-0.27987 12.62638,-0.27988 -10e-4,-6 -0.001,-6 -43.78552,-0.26063 c -30.298818,-0.18035 -44.198588,-0.6031 -45.125598,-1.37244 -1.85757,-1.54165 -1.99274,-103.813838 -0.13966,-105.666919 0.91561,-0.915608 22.59218,-1.2 91.464828,-1.2 88.21872,0 90.28828,0.04385 91.3,1.934259 0.58588,1.094726 1.03518,8.662802 1.03518,17.43663 l 0,15.50238 3.25,0.31336 3.25,0.31336 0,45 0,45 -25.87689,0.26714 c -18.25277,0.18843 -26.28144,-0.0686 -27.25,-0.87245 -0.9515,-0.78968 -1.37311,-3.55834 -1.37311,-9.01713 l 0,-7.87756 -20.54772,0 -20.54771,0 0.29771,6.25 0.29772,6.25 11.75,0.28174 11.75,0.28173 0,2.46827 0,2.46826 -27.5,0 -27.5,0 0,-2.47012 z m 124,-43.02988 0,-42.5 -24.5,0 -24.5,0 0,41.83333 c 0,23.00834 0.3,42.13334 0.66667,42.5 0.36666,0.36667 11.39166,0.66667 24.5,0.66667 l 23.83333,0 0,-42.5 z m -25.89572,40.56476 c -1.70267,-1.05269 -0.7354,-4.06476 1.30532,-4.06476 2.1956,0 3.01628,2.00275 1.45872,3.5598 -0.85934,0.85906 -1.88749,1.04689 -2.76404,0.50496 z m -19.10428,-40.08505 0,-35.02029 20.75,0.27029 c 11.4125,0.14866 20.6375,0.60779 20.5,1.02029 -0.1375,0.4125 -0.25,16.05 -0.25,34.75 l 0,34 -20.5,0 -20.5,0 0,-35.02029 z m 38,0.52029 0,-31.5 -17.5,0 -17.5,0 0,31.5 0,31.5 17.5,0 17.5,0 0,-31.5 z m -25.54112,-38.56653 c -1.11469,-1.80361 0.12859,-2.13347 8.04112,-2.13347 4.19833,0 7.87339,0.24006 8.1668,0.53347 1.61547,1.61546 -1.60364,2.66653 -8.1668,2.66653 -4.14962,0 -7.67059,-0.467 -8.04112,-1.06653 z m -19.45888,27.06653 0.5,-34.5 21.77529,-0.26957 21.7753,-0.26958 -0.2753,-15.73042 -0.27529,-15.730419 -88,0 -88.000008,0 -0.26026,49.499989 c -0.14314,27.225 -0.0435,50.06574 0.22138,50.7572 0.38142,0.9956 14.16881,1.20368 66.260268,1 l 65.77862,-0.2572 0.5,-34.5 z"
       id="path4094"
       style="fill:#ffffff" />
  </g>
</svg>
