<?xml version="1.0" encoding="UTF-8" standalone="no"?>
<!-- Created with Inkscape (http://www.inkscape.org/) -->

<svg
   xmlns:dc="http://purl.org/dc/elements/1.1/"
   xmlns:cc="http://creativecommons.org/ns#"
   xmlns:rdf="http://www.w3.org/1999/02/22-rdf-syntax-ns#"
   xmlns:svg="http://www.w3.org/2000/svg"
   xmlns="http://www.w3.org/2000/svg"
   version="1.1"
   width="280"
   height="280"
   id="svg3093">
  <metadata
     id="metadata3099">
    <rdf:RDF>
      <cc:Work
         rdf:about="">
        <dc:format>image/svg+xml</dc:format>
        <dc:type
           rdf:resource="http://purl.org/dc/dcmitype/StillImage" />
        <dc:title></dc:title>
      </cc:Work>
    </rdf:RDF>
  </metadata>
  <defs
     id="defs3097" />
  <path
     d="m 283.01176,149.40659 a 133.06746,133.06746 0 1 1 -266.134914,0 133.06746,133.06746 0 1 1 266.134914,0 z"
     transform="matrix(1.0520979,0,0,1.0520979,-17.756095,-17.190361)"
     id="path3964"
     style="fill:#116dbf;fill-opacity:0.94117647;stroke:none" />
  <g
     transform="translate(-10.238331,-10.26241)"
     id="g4051">
    <path
       d="M 132.28555,284.97193 C 82.631635,278.70056 38.904535,243.26155 22.121377,195.68841 16.785839,180.56442 15,169.2886 15,150.72391 15,140.35406 15.572851,130.97701 16.547951,125.38537 19.531156,108.27841 26.934253,89.996259 37.153262,74.5 44.014268,64.095867 64.095867,44.014268 74.5,37.153262 89.996259,26.934253 108.27841,19.531156 125.38537,16.547951 138.69084,14.227672 164.52105,14.456952 177.03132,17.006383 230.98146,28.00072 272.22412,69.389868 283.64628,124 c 2.21112,10.5715 2.47896,38.77617 0.47481,50 -1.71239,9.5899 -6.35886,24.2166 -10.76284,33.88048 -11.492,25.21754 -36.75493,51.19501 -62.35355,64.11715 -8.14703,4.1126 -24.64216,9.66217 -34.22412,11.51424 -9.93764,1.92082 -34.47259,2.72591 -44.49503,1.46006 z m 40.17535,-6.5736 c 41.53313,-6.81784 80.06797,-36.94731 96.75317,-75.64898 C 277.13751,184.37077 280.33072,168.79055 280.23017,149 279.94871,93.604233 243.97915,44.312829 190.93374,26.631358 165.17594,18.045583 137.18875,17.89499 111,26.201252 90.36869,32.744866 74.45797,42.5175 58.446905,58.480255 43.145187,73.735805 33.151017,89.703263 26.633172,109.30834 21.572848,124.52932 20.492493,132.07836 20.595053,151.5 c 0.08815,16.69233 0.315742,18.83545 3.132822,29.5 10.122858,38.32183 33.155354,67.47804 66.969293,84.77461 26.105042,13.35329 52.496882,17.428 81.763732,12.62372 z M 55.923077,228.07692 C 52.196592,224.35044 52.08224,220.24415 55.588894,216.07673 57.717403,213.54714 58.91912,213 62.346547,213 c 4.110861,0 4.505461,-0.33691 28.411107,-24.2575 C 112.44241,167.04418 115,164.14291 115,161.2425 115,156.59115 117.97868,154 123.32569,154 c 5.29606,0 8.67431,3.02688 8.67431,7.77212 0,2.49833 1.14627,4.26235 5.58704,8.59804 5.1932,5.07031 5.97011,5.47862 11.02129,5.79234 l 5.43426,0.3375 8.9787,-9.01879 C 170.40123,160.06833 172,157.9181 172,155.40552 c 0,-6.89004 9.43448,-10.06195 14.59091,-4.90552 2.2088,2.20881 3.34798,2.5 9.78023,2.5 6.51905,0 7.53181,-0.26779 9.68642,-2.56127 1.96708,-2.09386 3.1892,-2.51312 6.69685,-2.29741 4.12071,0.2534 4.58685,-0.0304 11.76813,-7.16371 C 231.06618,134.47764 232,133.10038 232,129.94934 232,124.99598 235.28853,122 240.72556,122 c 3.34691,0 4.57046,0.56308 6.68555,3.07673 C 248.835,126.76892 250,129.2094 250,130.5 c 0,1.2906 -1.165,3.73108 -2.58889,5.42327 -2.1801,2.59091 -3.29493,3.07673 -7.06023,3.07673 -4.2585,0 -4.82548,0.36463 -11.91111,7.66022 C 222.3669,152.91304 221,154.90203 221,157.48591 c 0,7.08071 -10.37042,10.4545 -15.41242,5.01409 -2.04384,-2.20534 -3.13737,-2.5 -9.27794,-2.5 -6.1769,0 -7.23211,0.28857 -9.3677,2.56181 -2.02702,2.15766 -3.16452,2.52158 -7.21048,2.30684 l -4.80378,-0.25497 -8.96384,8.92231 C 158.52951,180.93588 157,182.98667 157,185.55484 c 0,7.21817 -9.95347,10.23449 -15.31291,4.64044 C 139.99979,188.43412 139,186.28199 139,184.41112 c 0,-2.28082 -1.27005,-4.23372 -5.41646,-8.32861 -5.14724,-5.08331 -5.67452,-5.34918 -10.60876,-5.34918 l -5.1923,0 -23.391241,23.37536 C 71.528291,216.95611 71,217.57598 71,221.55493 c 0,8.52776 -9.124201,12.47472 -15.076923,6.52199 z m 9.505494,-2.64835 C 68.461282,222.39586 66.266356,217 62,217 c -2.279808,0 -5,2.5802 -5,4.74269 0,2.21359 2.943129,5.25731 5.083559,5.25731 0.975471,0 2.480727,-0.70714 3.345012,-1.57143 z m 87.381809,-40.72939 c 0.41361,-3.43002 -3.6949,-6.36654 -6.6756,-4.77131 -3.90625,2.09056 -3.75438,7.5012 0.25432,9.06069 2.84002,1.10483 6.02758,-1.02443 6.42128,-4.28938 z M 126.8,165.8 c 0.66,-0.66 1.2,-2.44417 1.2,-3.96482 0,-5.00532 -6.63757,-6.24941 -9.07213,-1.7004 -2.29928,4.29625 4.41159,9.12576 7.87213,5.66522 z m 56.26574,-4.83518 c 2.19222,-1.17324 2.63573,-5.86335 0.73426,-7.76482 -2.65422,-2.65422 -8.8,-0.29966 -8.8,3.37143 0,1.66609 3.51101,5.42857 5.06574,5.42857 0.58616,0 1.93616,-0.46583 3,-1.03518 z m 32,0 c 2.19222,-1.17324 2.63573,-5.86335 0.73426,-7.76482 -1.33553,-1.33553 -4.70157,-1.56361 -6.41522,-0.43469 -2.33576,1.53877 -2.55002,5.06945 -0.43593,7.18354 2.31976,2.31976 3.35839,2.49227 6.11689,1.01597 z m 28.5072,-26.73013 c 1.78475,-1.22209 2.48,-4.26726 1.42454,-6.23941 -2.08724,-3.90004 -8.16036,-3.30443 -9.26203,0.90836 -1.0702,4.09245 4.30591,7.74927 7.83749,5.33105 z M 99.454545,131.54545 C 97.494274,129.58518 97,128.0704 97,124.02311 c 0,-4.56741 0.419637,-5.52606 4.25,-9.70902 C 105.55659,109.61107 117.64297,103 121.93446,103 c 2.68936,0 2.63359,-0.52358 -1.03564,-9.723969 C 118.08258,86.214489 117.79193,84.44334 117.73556,74 c -0.0701,-12.982131 0.47931,-14.61137 6.83936,-20.282708 5.23026,-4.663904 8.13669,-5.718571 15.74018,-5.711715 8.63612,0.0078 12.67696,1.376633 16.92105,5.732056 5.32845,5.468228 6.7661,9.723404 6.75047,19.980248 -0.011,7.248608 -0.54668,10.266368 -3.06752,17.282119 -4.58402,12.75781 -4.47304,12 -1.75752,12 3.00744,0 16.55154,6.41497 19.68343,9.32277 3.59655,3.33921 5.15499,7.10405 5.15499,12.45326 0,3.80317 -0.50899,5.35351 -2.31445,7.04966 C 179.39149,133.98084 179.02981,134 140.64009,134 l -38.731,0 -2.454545,-2.45455 z m 77.887725,-4.03058 c 0.81682,-0.81682 1.33339,-2.27932 1.14794,-3.25 -0.18545,-0.97068 -0.37162,-2.06784 -0.4137,-2.43814 -0.0421,-0.37031 -1.25812,-2.07754 -2.7023,-3.79385 -3.34779,-3.97863 -8.70959,-6.70048 -17.6938,-8.98204 -3.9191,-0.99527 -7.56387,-2.50432 -8.09948,-3.35343 -0.70567,-1.11871 -0.11291,-3.30956 2.15255,-7.955884 C 155.77783,89.4468 158,80.733757 158,73.170755 c 0,-7.132631 -1.15939,-10.635611 -4.81362,-14.543916 -8.62976,-9.229769 -23.83149,-6.543413 -28.80954,5.091042 -3.06732,7.168793 -1.05391,21.156399 4.83337,33.5785 2.36918,4.998949 2.95843,7.212719 2.22804,8.370629 -0.54616,0.86583 -4.31075,2.41679 -8.36576,3.44657 -8.30154,2.10821 -14.92426,5.61122 -17.99935,9.52057 -2.28281,2.90212 -2.79236,8.90897 -0.82314,9.70357 0.6875,0.27741 17.08036,0.53991 36.42857,0.58333 29.85364,0.067 35.40337,-0.14585 36.6637,-1.40618 z m 2.67679,-21.9919 c -0.6742,-0.81237 -3.69664,-2.68589 -6.71652,-4.16338 -3.01989,-1.477492 -5.73179,-3.314613 -6.02645,-4.082491 -0.29466,-0.767879 0.47613,-5.596964 1.71288,-10.731301 4.10169,-17.028134 1.81374,-27.630851 -8.16057,-37.817299 C 158.17278,46.016397 156,43.47718 156,43.085794 c 0,-1.199353 5.31619,-5.764762 8.70034,-7.471632 4.58768,-2.313896 15.33531,-2.146787 20.15771,0.313421 4.92629,2.513207 10.57816,8.834099 12.1455,13.583188 1.92298,5.826657 0.69481,15.763765 -3.01224,24.372115 -3.22769,7.495224 -3.08696,9.056192 0.82062,9.101801 2.67191,0.03119 12.205,5.221375 14.16345,7.711147 2.94752,3.747162 2.79398,11.232766 -0.28983,14.129856 C 206.5628,106.81991 205.33052,107 193.80799,107 c -9.86042,0 -12.82681,-0.31775 -13.78893,-1.47703 z m 24.40951,-5.0944 c 4.16989,-4.169888 -0.49907,-8.40626 -13.16152,-11.942083 -9.0202,-2.518773 -9.21697,-3.02113 -4.99967,-12.764508 6.12653,-14.154314 6.85287,-18.078873 4.5941,-24.822756 C 188.53041,43.939486 182.68216,40 174.68134,40 170.42232,40 164,41.645059 164,42.735994 c 0,0.29719 1.83403,2.530029 4.07562,4.961866 6.71117,7.280765 7.80084,10.829063 7.7591,25.265979 -0.0199,6.894888 -0.59041,14.650335 -1.26773,17.234325 -1.22137,4.659551 -1.20877,4.707575 1.53272,5.843138 1.52032,0.629736 4.23226,2.228062 6.02653,3.551836 2.85963,2.109772 4.34045,2.406862 11.99661,2.406862 6.60693,0 9.11704,-0.38274 10.30572,-1.57143 z"
       id="path4065"
       style="fill:#ffffff" />
  </g>
</svg>
