<?xml version="1.0" encoding="UTF-8" standalone="no"?>
<!-- Created with Inkscape (http://www.inkscape.org/) -->

<svg
   xmlns:dc="http://purl.org/dc/elements/1.1/"
   xmlns:cc="http://creativecommons.org/ns#"
   xmlns:rdf="http://www.w3.org/1999/02/22-rdf-syntax-ns#"
   xmlns:svg="http://www.w3.org/2000/svg"
   xmlns="http://www.w3.org/2000/svg"
   version="1.1"
   width="47.322033"
   height="47.322033"
   viewBox="0 0 47.322033 47.322033"
   id="svg4569">
  <metadata
     id="metadata4605">
    <rdf:RDF>
      <cc:Work
         rdf:about="">
        <dc:format>image/svg+xml</dc:format>
        <dc:type
           rdf:resource="http://purl.org/dc/dcmitype/StillImage" />
        <dc:title></dc:title>
      </cc:Work>
    </rdf:RDF>
  </metadata>
  <defs
     id="defs4603" />
  <g
     transform="translate(9.6271183,6.3728803)"
     id="g4571" />
  <g
     transform="translate(9.6271183,6.3728803)"
     id="layer5">
    <path
       d="m 43.525423,16.61017 a 23.661016,23.661016 0 1 1 -47.3220329,0 23.661016,23.661016 0 1 1 47.3220329,0 z"
       transform="translate(-5.8305084,0.67796583)"
       id="path4689"
       style="fill:#3498db;fill-opacity:1;stroke:none" />
    <path
       d="m 28.474577,23.016949 a 4.7796612,4.7796612 0 1 1 -9.559322,0 4.7796612,4.7796612 0 1 1 9.559322,0 z"
       transform="matrix(1.609929,0,0,1.6312057,-23.943743,-20.392834)"
       id="path8116"
       style="fill:#ffffff;fill-opacity:0.94117647;stroke:none" />
    <path
       d="m 8.8317172,21.57336 -5.670953,5.734834"
       id="path8122"
       style="fill:#ffffff;stroke:#ffffff;stroke-width:1.2347604px;stroke-linecap:butt;stroke-linejoin:miter;stroke-opacity:1" />
    <path
       d="m 9.3481911,33.119972 a 0.27565178,0.49137929 0 1 1 -0.5513036,0 0.27565178,0.49137929 0 1 1 0.5513036,0 z"
       transform="matrix(12.000001,0,0,6.5609756,-106.84831,-187.93954)"
       id="path8124"
       style="fill:#ffffff;fill-opacity:0.94117647;stroke:none" />
    <path
       d="m 9.3481911,33.119972 a 0.27565178,0.49137929 0 1 1 -0.5513036,0 0.27565178,0.49137929 0 1 1 0.5513036,0 z"
       transform="matrix(12.000001,0,0,6.5609756,-106.97241,-212.13831)"
       id="path8126"
       style="fill:#ffffff;fill-opacity:0.94117647;stroke:none" />
    <path
       d="m 9.3481911,33.119972 a 0.27565178,0.49137929 0 1 1 -0.5513036,0 0.27565178,0.49137929 0 1 1 0.5513036,0 z"
       transform="matrix(12.000001,0,0,6.5609756,-82.89774,-212.22104)"
       id="path8128"
       style="fill:#ffffff;fill-opacity:0.94117647;stroke:none" />
    <path
       d="m 9.3481911,33.119972 a 0.27565178,0.49137929 0 1 1 -0.5513036,0 0.27565178,0.49137929 0 1 1 0.5513036,0 z"
       transform="matrix(12.000001,0,0,6.5609756,-82.856375,-188.02227)"
       id="path8130"
       style="fill:#ffffff;fill-opacity:0.94117647;stroke:none" />
    <path
       d="M 24.550572,7.5504849 18.879619,13.285319"
       id="path8132"
       style="fill:#ffffff;stroke:#ffffff;stroke-width:1.2347604px;stroke-linecap:butt;stroke-linejoin:miter;stroke-opacity:1" />
    <path
       d="M 25.166935,27.435093 19.33875,21.860122"
       id="path8148"
       style="fill:#ffffff;stroke:#ffffff;stroke-width:1.2347604px;stroke-linecap:butt;stroke-linejoin:miter;stroke-opacity:1" />
    <path
       d="M 8.8484556,12.812568 3.0202711,7.237624"
       id="path8150"
       style="fill:#ffffff;stroke:#ffffff;stroke-width:1.2347604px;stroke-linecap:butt;stroke-linejoin:miter;stroke-opacity:1" />
  </g>
  <g
     transform="translate(9.6271183,6.3728803)"
     id="layer4">
    <g
       transform="translate(-1.6949156,1.5593229)"
       id="g5227">
      <path
         d="m 14.855814,18.355813 c -0.128,0 -0.256,-0.049 -0.354,-0.146 l -2.765,-2.765999 c -0.195,-0.195 -0.195,-0.512 0,-0.707 0.195,-0.195 0.512,-0.195 0.707,0 l 2.419,2.419999 4.121,-3.925999 c 0.199,-0.19 0.515,-0.184 0.707,0.017 0.19,0.2 0.183,0.516 -0.018,0.707 l -4.474,4.263999 c -0.095,0.091 -0.219,0.137 -0.343,0.137 z"
         id="path4573"
         style="fill:#1a1a1a" />
      <path
         d="m 27.837814,31.768813 c -2.161,0 -3.92,-1.754 -3.92,-3.91 0,-0.741 0.206,-1.45 0.599,-2.074 l -3.615,-3.615 c -1.467,1.183 -3.292,1.829 -5.193,1.829 -1.893,0 -3.708,-0.64 -5.164,-1.81 l -3.5980005,3.599 c 0.384,0.625 0.592,1.346 0.592,2.071 0,2.156 -1.754,3.91 -3.9099999,3.91 -2.1620001,0 -3.92000007,-1.754 -3.92000007,-3.91 0,-2.161 1.75799997,-3.92 3.92000007,-3.92 0.2769999,0 0.5539999,0.029 0.8269999,0.086 l 4.12,-4.119 c -0.746,-1.268 -1.138,-2.703 -1.138,-4.176999 0,-1.487 0.391,-2.923 1.135,-4.178 l -4.117,-4.1180004 c -0.273,0.057 -0.55,0.086 -0.8269999,0.086 -2.1620001,0 -3.92000007,-1.7540001 -3.92000007,-3.9100001 0,-2.162 1.75799997,-3.91999996 3.92000007,-3.91999996 2.1559999,0 3.9099999,1.75799996 3.9099999,3.91999996 0,0.728 -0.208,1.446 -0.59,2.063 l 3.5870005,3.596 c 1.461,-1.176 3.28,-1.8189999 5.173,-1.8189999 1.911,0 3.74,0.6489999 5.204,1.8379999 l 3.604,-3.612 c -0.388,-0.616 -0.598,-1.334 -0.598,-2.066 0,-2.162 1.759,-3.91999996 3.92,-3.91999996 2.156,0 3.91,1.75799996 3.91,3.91999996 0,2.4330001 -2.293,4.336 -4.745,3.8230001 l -4.141,4.1400004 c 0.738,1.257 1.126,2.685 1.126,4.157 0,1.479999 -0.388,2.908999 -1.125,4.156999 l 4.14,4.141 c 2.453,-0.514 4.745,1.395 4.745,3.832 0,2.156 -1.754,3.91 -3.911,3.91 z m -6.91,-10.78 c 0.128,0 0.256,0.049 0.354,0.146 l 4.24,4.24 c 0.18,0.18 0.196,0.466 0.038,0.665 -0.42,0.527 -0.642,1.156 -0.642,1.818 0,1.604 1.31,2.91 2.92,2.91 1.604,0 2.91,-1.306 2.91,-2.91 0,-1.893 -1.843,-3.337 -3.766,-2.799 -0.171,0.049 -0.361,0 -0.488,-0.128 l -4.619,-4.62 c -0.168,-0.168 -0.194,-0.432 -0.063,-0.63 0.77,-1.163 1.177,-2.53 1.177,-3.952999 0,-1.414 -0.407,-2.782 -1.178,-3.956 -0.13,-0.198 -0.104,-0.46 0.064,-0.628 l 4.619,-4.6190004 c 0.127,-0.128 0.318,-0.177 0.488,-0.128 1.927,0.541 3.766,-0.9030001 3.766,-2.7890001 0,-1.61 -1.306,-2.91999996 -2.91,-2.91999996 -1.61,0 -2.92,1.30999996 -2.92,2.91999996 0,0.655 0.227,1.296 0.639,1.806 0.161,0.199 0.146,0.487 -0.035,0.6670001 l -4.23,4.2400004 c -0.188,0.19 -0.493,0.197 -0.69,0.016 -1.333,-1.2190005 -3.07,-1.8900005 -4.892,-1.8900005 -1.804,0 -3.532,0.665 -4.865,1.8710005 -0.198,0.179 -0.501,0.171 -0.689,-0.018 L 5.9458135,6.0798136 c -0.179,-0.1800001 -0.195,-0.4650001 -0.038,-0.6640001 0.406,-0.512 0.631,-1.154 0.631,-1.807 0,-1.61 -1.306,-2.91999996 -2.9099999,-2.91999996 -1.61,0 -2.92000007,1.30999996 -2.92000007,2.91999996 0,1.604 1.31000007,2.9100001 2.92000007,2.9100001 0.2829999,0 0.5659999,-0.041 0.8409999,-0.12 0.175,-0.052 0.363,-0.002 0.493,0.127 l 4.6,4.6000004 c 0.168,0.168 0.195,0.432 0.063,0.63 -0.777,1.17 -1.188,2.544 -1.188,3.973 0,1.414999 0.411,2.789999 1.188,3.975999 0.13,0.198 0.103,0.46 -0.064,0.628 l -4.6,4.6 c -0.128,0.128 -0.316,0.176 -0.493,0.127 -0.275,-0.08 -0.558,-0.12 -0.8409999,-0.12 -1.61,0 -2.92000007,1.31 -2.92000007,2.92 0,1.604 1.31000007,2.91 2.92000007,2.91 1.6039999,0 2.9099999,-1.306 2.9099999,-2.91 0,-0.66 -0.219,-1.29 -0.635,-1.822 -0.155,-0.199 -0.138,-0.482 0.041,-0.661 l 4.2200005,-4.22 c 0.188,-0.189 0.491,-0.195 0.689,-0.018 1.326,1.2 3.05,1.86 4.855,1.86 1.812,0 3.546,-0.668 4.883,-1.88 0.097,-0.087 0.217,-0.13 0.337,-0.13 z"
         id="path4575"
         style="fill:#f9f9f9" />
      <path
         d="M 4.9448135,28.235813 H 2.2888136 c -0.207,0 -0.375,-0.168 -0.375,-0.375 0,-0.207 0.168,-0.375 0.375,-0.375 h 2.6559999 c 0.207,0 0.375,0.168 0.375,0.375 0,0.207 -0.168,0.375 -0.375,0.375 z"
         id="path4577"
         style="fill:#1a1a1a" />
      <path
         d="m 3.4108136,27.105813 h -1.122 c -0.207,0 -0.375,-0.168 -0.375,-0.375 0,-0.207 0.168,-0.375 0.375,-0.375 h 1.122 c 0.207,0 0.375,0.168 0.375,0.375 0,0.207 -0.168,0.375 -0.375,0.375 z"
         id="path4579"
         style="fill:#1a1a1a" />
      <path
         d="M 4.9448135,29.381813 H 2.2888136 c -0.207,0 -0.375,-0.168 -0.375,-0.375 0,-0.207 0.168,-0.375 0.375,-0.375 h 2.6559999 c 0.207,0 0.375,0.168 0.375,0.375 0,0.207 -0.168,0.375 -0.375,0.375 z"
         id="path4581"
         style="fill:#1a1a1a" />
      <path
         d="m 29.166814,28.230813 h -2.656 c -0.207,0 -0.375,-0.168 -0.375,-0.375 0,-0.207 0.168,-0.375 0.375,-0.375 h 2.656 c 0.207,0 0.375,0.168 0.375,0.375 0,0.207 -0.168,0.375 -0.375,0.375 z"
         id="path4583"
         style="fill:#1a1a1a" />
      <path
         d="m 27.630814,27.099813 h -1.121 c -0.207,0 -0.375,-0.168 -0.375,-0.375 0,-0.207 0.168,-0.375 0.375,-0.375 h 1.121 c 0.207,0 0.375,0.168 0.375,0.375 0,0.207 -0.168,0.375 -0.375,0.375 z"
         id="path4585"
         style="fill:#1a1a1a" />
      <path
         d="m 29.166814,29.376813 h -2.656 c -0.207,0 -0.375,-0.168 -0.375,-0.375 0,-0.207 0.168,-0.375 0.375,-0.375 h 2.656 c 0.207,0 0.375,0.168 0.375,0.375 0,0.207 -0.168,0.375 -0.375,0.375 z"
         id="path4587"
         style="fill:#1a1a1a" />
      <path
         d="M 4.9358135,3.9698135 H 2.2788136 c -0.207,0 -0.375,-0.168 -0.375,-0.375 0,-0.207 0.168,-0.375 0.375,-0.375 h 2.6559999 c 0.207,0 0.375,0.168 0.375,0.375 0,0.207 -0.167,0.375 -0.374,0.375 z"
         id="path4589"
         style="fill:#1a1a1a" />
      <path
         d="m 3.4008136,2.8398135 h -1.122 c -0.207,0 -0.375,-0.168 -0.375,-0.375 0,-0.207 0.168,-0.375 0.375,-0.375 h 1.122 c 0.207,0 0.375,0.168 0.375,0.375 0,0.207 -0.168,0.375 -0.375,0.375 z"
         id="path4591"
         style="fill:#1a1a1a" />
      <path
         d="M 4.9358135,5.1168135 H 2.2788136 c -0.207,0 -0.375,-0.168 -0.375,-0.375 0,-0.207 0.168,-0.375 0.375,-0.375 h 2.6559999 c 0.207,0 0.375,0.168 0.375,0.375 0,0.207 -0.167,0.375 -0.374,0.375 z"
         id="path4593"
         style="fill:#1a1a1a" />
      <path
         d="m 29.164814,3.9698135 h -2.656 c -0.207,0 -0.375,-0.168 -0.375,-0.375 0,-0.207 0.168,-0.375 0.375,-0.375 h 2.656 c 0.207,0 0.375,0.168 0.375,0.375 0,0.207 -0.168,0.375 -0.375,0.375 z"
         id="path4595"
         style="fill:#1a1a1a" />
      <path
         d="m 27.630814,2.8398135 h -1.123 c -0.207,0 -0.375,-0.168 -0.375,-0.375 0,-0.207 0.168,-0.375 0.375,-0.375 h 1.123 c 0.207,0 0.375,0.168 0.375,0.375 0,0.207 -0.168,0.375 -0.375,0.375 z"
         id="path4597"
         style="fill:#1a1a1a" />
      <path
         d="m 29.164814,5.1168135 h -2.656 c -0.207,0 -0.375,-0.168 -0.375,-0.375 0,-0.207 0.168,-0.375 0.375,-0.375 h 2.656 c 0.207,0 0.375,0.168 0.375,0.375 0,0.207 -0.168,0.375 -0.375,0.375 z"
         id="path4599"
         style="fill:#1a1a1a" />
    </g>
  </g>
</svg>
