<?xml version="1.0" encoding="UTF-8" standalone="no"?>
<!-- Created with Inkscape (http://www.inkscape.org/) -->

<svg
   xmlns:dc="http://purl.org/dc/elements/1.1/"
   xmlns:cc="http://creativecommons.org/ns#"
   xmlns:rdf="http://www.w3.org/1999/02/22-rdf-syntax-ns#"
   xmlns:svg="http://www.w3.org/2000/svg"
   xmlns="http://www.w3.org/2000/svg"
   version="1.1"
   width="280.11401"
   height="280.11401"
   id="svg3103">
  <metadata
     id="metadata3109">
    <rdf:RDF>
      <cc:Work
         rdf:about="">
        <dc:format>image/svg+xml</dc:format>
        <dc:type
           rdf:resource="http://purl.org/dc/dcmitype/StillImage" />
        <dc:title></dc:title>
      </cc:Work>
    </rdf:RDF>
  </metadata>
  <defs
     id="defs3107" />
  <g
     transform="translate(6.9167384,-319.72216)"
     id="g3979">
    <path
       d="m 283.01176,149.40659 a 133.06746,133.06746 0 1 1 -266.134914,0 133.06746,133.06746 0 1 1 266.134914,0 z"
       transform="matrix(1.0525263,0,0,1.0525263,-24.680063,302.5248)"
       id="path3964"
       style="fill:#116dbf;fill-opacity:0.94117647;stroke:none" />
    <path
       d="M 115.18749,594.48869 C 65.533573,588.21732 21.806473,552.77831 5.0233159,505.20517 c -5.33553802,-15.12399 -7.121377,-26.39981 -7.121377,-44.9645 0,-10.36985 0.572851,-19.7469 1.54795098,-25.33854 C 2.4330949,417.79517 9.8361915,399.51302 20.0552,384.01676 c 6.861006,-10.40413 26.942605,-30.48573 37.346738,-37.34674 15.496259,-10.21901 33.778411,-17.6221 50.885372,-20.60531 13.30547,-2.32028 39.13568,-2.091 51.64595,0.45843 53.95014,10.99434 95.1928,52.38349 106.61496,106.99362 2.21112,10.5715 2.47896,38.77617 0.47481,50 -1.71239,9.5899 -6.35886,24.2166 -10.76284,33.88048 -11.492,25.21754 -36.75493,51.19501 -62.35355,64.11715 -8.14703,4.1126 -24.64216,9.66217 -34.22412,11.51424 -9.93764,1.92082 -34.47259,2.72591 -44.49503,1.46006 z m 40.17535,-6.5736 c 41.53313,-6.81784 80.06797,-36.94731 96.75317,-75.64898 7.92344,-18.37858 11.11665,-33.9588 11.0161,-53.74935 -0.28146,-55.39577 -36.25102,-104.68717 -89.29643,-122.36864 -25.7578,-8.58578 -53.74499,-8.73637 -79.933741,-0.43011 -20.631311,6.54362 -36.542031,16.31625 -52.553096,32.279 -15.301718,15.25556 -25.295888,31.22301 -31.8137325,50.82809 -5.0603236,15.22098 -6.1406786,22.77002 -6.0381186,42.19166 0.08815,16.69233 0.315742,18.83545 3.132822,29.5 10.1228571,38.32183 33.1553531,67.47804 66.9692921,84.77461 26.105039,13.35329 52.496884,17.428 81.763734,12.62372 z M 39.245276,536.9691 c -1.858387,-4.84288 3.49684,-16.38602 8.014728,-17.27566 2.189048,-0.43106 2.179713,3.13244 -0.01297,4.95088 -1.642503,1.36216 -4.345096,6.86072 -4.345096,8.84032 0,0.66902 5.98065,1.03212 17,1.03212 14.686567,0 17,-0.21088 17,-1.54966 0,-2.3469 -2.496095,-6.65708 -5.457698,-9.42417 -2.324432,-2.17178 -3.567032,-2.47703 -10.176685,-2.5 -7.225186,-0.0251 -7.646705,-0.15794 -10.447288,-3.29195 -5.299071,-5.92996 -3.476491,-16.31788 3.438749,-19.59938 5.760018,-2.7333 10.787995,-1.73938 15.181231,3.001 1.922066,2.07394 2.461691,3.73465 2.461691,7.57592 0,2.70585 -0.465833,5.79014 -1.035184,6.85398 -0.569351,1.06384 -0.644351,1.93426 -0.166666,1.93426 0.477684,0 2.493116,1.6246 4.478737,3.61022 3.902864,3.90286 6.471244,10.24432 5.929322,14.63978 l -0.339054,2.75 -20.464962,0 c -17.548671,0 -20.549593,-0.22054 -21.058855,-1.54766 z m 26.202117,-21.90689 c 4.046405,-4.0464 3.239997,-10.5708 -1.616976,-13.08244 -3.923177,-2.02875 -5.312731,-1.85201 -8.851754,1.12588 -2.342906,1.97143 -3.076725,3.41331 -3.076725,6.04546 0,4.48834 3.707836,8.36565 8,8.36565 1.948373,0 3.998217,-0.90731 5.545455,-2.45455 z m 113.821097,21.96738 c -1.54983,-4.0388 4.71509,-17.51283 8.14281,-17.51283 2.62218,0 2.73869,2.6293 0.23617,5.32957 -1.30781,1.41115 -2.86844,4.16428 -3.46808,6.11808 l -1.09025,3.55235 17.4064,0 c 11.98169,0 17.4064,-0.34246 17.4064,-1.09887 0,-2.34481 -3.37534,-8.03917 -6.14827,-10.37244 -2.63009,-2.21308 -3.51804,-2.39122 -9.25067,-1.8559 -6.17188,0.57634 -6.44094,0.50087 -10.06972,-2.82466 -6.7629,-6.19774 -5.49091,-16.23208 2.58718,-20.40942 7.76011,-4.01291 17.88148,1.99395 17.88148,10.61235 0,2.24423 -0.48631,4.98909 -1.08068,6.09969 -0.92938,1.73656 -0.52036,2.49889 2.92134,5.44485 4.40133,3.76738 7.51077,10.44434 6.98977,15.00926 l -0.33043,2.89514 -20.77357,0.27036 c -17.87845,0.23268 -20.85528,0.0574 -21.35988,-1.25753 z m 26.98743,-21.96508 c 3.6979,-3.4271 3.55127,-7.79635 -0.39404,-11.74166 -2.55553,-2.55552 -3.55113,-2.93785 -6.24653,-2.39877 -1.76356,0.35271 -3.98459,1.41942 -4.93563,2.37046 -0.95104,0.95104 -2.01775,3.17207 -2.37046,4.93563 -0.53908,2.6954 -0.15675,3.691 2.39877,6.24653 3.7929,3.7929 7.86583,4.00022 11.54789,0.58781 z m -125.850332,6.45628 c -1.886943,-2.08505 -1.839218,-2.14592 14.540231,-18.54797 9.038361,-9.05083 16.945901,-16.45606 17.572311,-16.45606 0.62641,0 1.72441,0.70548 2.44002,1.56773 1.12534,1.35595 -0.99264,3.86146 -15.679165,18.54797 l -16.980236,16.98025 -1.893161,-2.09192 z m 78.007302,-14.99306 c -15.97146,-15.9949 -15.97146,-15.9949 -13.97146,-17.9949 2,-2 2,-2 17.97258,13.99602 13.40091,13.42057 15.80131,16.26754 14.90881,17.68245 -0.58507,0.92753 -1.48557,1.82702 -2.00112,1.99887 -0.51554,0.17185 -8.12451,-6.88525 -16.90881,-15.68244 z m -43.28598,-30.28449 c -7.80318,-7.8556 -8.60848,-10.07811 -4.91052,-13.55217 3.27058,-3.07254 5.54344,-2.71897 9.90606,1.54101 l 3.80483,3.71532 8.25822,-8.21532 c 8.77613,-8.73055 11.7854,-10.00658 15.06145,-6.38658 3.47502,3.83985 2.20736,6.15159 -10.11003,18.43689 -6.47076,6.4539 -12.44452,11.73437 -13.27503,11.73437 -0.8305,0 -4.76124,-3.27308 -8.73498,-7.27352 z m 19.15052,-8.6015 c 5.41088,-5.43126 9.41981,-10.13345 8.90874,-10.44932 -0.51108,-0.31586 -4.71167,3.2279 -9.33465,7.87502 -4.62298,4.64713 -9.11153,8.44932 -9.97455,8.44932 -0.86303,0 -3.30859,-1.78136 -5.43459,-3.95858 -2.126,-2.17722 -4.28635,-3.69846 -4.80078,-3.38052 -0.84471,0.52206 8.92856,11.3391 10.24494,11.3391 0.30411,0 4.98001,-4.44376 10.39089,-9.87502 z M 95.596689,432.71176 C 79.578882,416.67314 78.897295,415.83094 80.650896,414.24395 c 1.746343,-1.58042 2.673933,-0.82519 18.719539,15.24127 14.580795,14.59974 16.705255,17.11726 15.584385,18.46782 -0.71377,0.86005 -1.58513,1.56372 -1.93636,1.56372 -0.35122,0 -8.19102,-7.56225 -17.421771,-16.805 z m 48.252671,14.24165 c -1.12015,-1.34971 0.87759,-3.74159 14.61876,-17.50293 8.75393,-8.76677 16.33804,-15.79898 16.85358,-15.62713 0.51555,0.17185 1.41598,1.07124 2.00098,1.99864 0.89198,1.41408 -1.43452,4.18824 -14.41646,17.19048 -8.51404,8.52736 -15.99293,15.50429 -16.61974,15.50429 -0.62681,0 -1.72351,-0.70351 -2.43712,-1.56335 z M 39.111196,408.00692 c 0.349949,-4.21992 1.165098,-6.38545 3.481897,-9.25 3.478674,-4.30112 6.308845,-5.39389 6.308845,-2.43593 0,1.07298 -0.744707,2.56848 -1.654904,3.32333 -1.642503,1.36215 -4.345096,6.86072 -4.345096,8.84032 0,0.66902 5.98065,1.03212 17,1.03212 14.686567,0 17,-0.21088 17,-1.54966 0,-2.55134 -2.734038,-7.04876 -5.909193,-9.72048 -2.70058,-2.27239 -3.594482,-2.45912 -9.50175,-1.98495 -6.4128,0.51476 -6.579214,0.46493 -10.054889,-3.01074 -3.032102,-3.0321 -3.534168,-4.1947 -3.534168,-8.18383 0,-6.0144 2.060572,-9.87667 6.357078,-11.9155 5.760018,-2.7333 10.787995,-1.73938 15.181231,3.001 1.922066,2.07394 2.461691,3.73465 2.461691,7.57592 0,2.70585 -0.415921,5.69688 -0.92427,6.64674 -0.71607,1.33799 -0.31222,2.13837 1.792833,3.55316 4.359602,2.93007 7.446701,8.50671 7.937368,14.33834 l 0.441729,5.25 -21.24766,0 -21.24766,0 0.456918,-5.50984 z m 26.155883,-17.56274 c 5.654967,-4.4482 2.098746,-13.92742 -5.225004,-13.92742 -7.438743,0 -10.925096,8.30595 -5.685592,13.54545 3.036428,3.03643 7.344268,3.18724 10.910596,0.38197 z m 114.321251,22.42563 c -2.88723,-2.88722 4.1778,-18.35305 8.38395,-18.35305 2.24287,0 2.07285,3.24518 -0.30438,5.8097 -1.37161,1.47966 -2.98165,4.1528 -3.57788,5.9403 l -1.08404,3.25 17.51537,0 17.51537,0 -0.69408,-2.25 c -1.30073,-4.21663 -3.39691,-7.5704 -6.02256,-9.63573 -2.21897,-1.74545 -3.50907,-1.96958 -8.39639,-1.45876 -4.57839,0.47854 -6.41828,0.22333 -8.88201,-1.23203 -8.94138,-5.28181 -7.41697,-18.81646 2.51486,-22.32857 7.63712,-2.70065 15.15067,1.99781 16.05726,10.0411 0.28561,2.53387 0.0128,5.50991 -0.61206,6.6775 -0.98705,1.84433 -0.57429,2.65937 3.31789,6.55154 4.55859,4.55859 7.05316,10.25441 6.42886,14.6789 l -0.34655,2.45605 -20.56361,0.26972 c -11.30999,0.14835 -20.87249,-0.0392 -21.25,-0.41667 z m 26.85906,-22.8076 c 4.87685,-4.87684 1.65383,-13.54545 -5.03624,-13.54545 -4.7223,0 -6.37255,0.83506 -8.0462,4.07152 -2.10215,4.06512 -1.83549,5.70985 1.46007,9.0054 3.72963,3.72963 8.1818,3.90911 11.62237,0.46853 z"
       id="path3993"
       style="fill:#ffffff" />
  </g>
  <g
     transform="translate(10.012869,-304.52494)"
     id="g3893" />
  <path
     d=""
     id="path3115"
     style="fill:#000000" />
  <path
     d=""
     id="path3113"
     style="fill:#000000" />
</svg>
